<svg xmlns="http://www.w3.org/2000/svg" width="428" height="314" viewBox="0 0 428 314">
  <defs>
    <style>
      .cls-1 {
        fill: #fff;
        stroke: #000;
        stroke-width: 2px;
        fill-rule: evenodd;
      }
    </style>
  </defs>
  <path id="huyện_Bình_Đại" data-name="huyện Bình Đại" class="cls-1" d="M483,27c10.8,0.739,19.361,11.144,27,16,15.934,10.13,32.722,17.678,52,25,51.854,19.7,105.506,34.22,156,55,25.527,10.5,52.332,16.859,77,27,5.076,2.087,10.148,1.49,15,4,8.394,4.342,13.729,13.6,21,19,4.807,3.574,10.857,4.512,16,8,4.707,3.192,8.311,9.705,14,12,14.2,5.728,35.9-1.827,37,17,5.721,8.032-2,38.935-5,46-5.432,12.8-17.964,21.511-27,31-11.587,12.168-22.1,25.165-34,37-5.962,5.929-15.3,14.4-26,15-3.532-2.378-10.43-1.562-14-4-0.8-1.021-.355-0.274-1-2,4.809-3.551,6.21-8.2,6-17,1.159-2-3.907-20.52-6-22h-9c-0.639,2.962-.6,3.69-3,5-6.473-11.132-15.935-22.174-23-33-7.616-11.669-11.109-31.039-22-39-10.92-7.983-31.024-8.081-39-19-5.746-7.866-14.395-35.891-22-39-7.267-6.155-24.257-4.777-34-8-6.831-2.26-11.514-7.467-17-10-10.047-4.639-20.643-5.436-31-10-17.854-7.867-30.548-20.963-45-32-6.269-4.787-8.715-11.935-17-17-4.14-2.531-10.62-5.766-15-7-7.654-2.156-14.8.708-21-2-7.5-3.276-15.675-13.376-20-20C475.721,59.36,482.166,32.807,483,27Z" transform="translate(-472 -26)"/>
</svg>
