<svg xmlns="http://www.w3.org/2000/svg" width="348" height="317" viewBox="0 0 348 317">
  <defs>
    <style>
      .cls-1 {
        fill: #fff;
        stroke: #000;
        stroke-width: 2px;
        fill-rule: evenodd;
      }
    </style>
  </defs>
  <path id="huyện_Thạch_Phú" data-name="huyện Thạch Phú" class="cls-1" d="M443,387q0.5-11.5,1-23c0.935-2.64,4.7-3.862,6-6,0.441-.726,4-24,4-24-0.61-3.853-4.217-5.973-5-11,5-3.419,6.072-8.271,14-9,1.624,1.5,2.023,1.552,5,2,1.807-2.718,3.777-3.544,5-7-2.242-2.81-2.136-7.715-2-13h1v2c7.409,5.175,11.756,15.543,17,23,10.183,14.481,21.857,30.311,36,41l12,13c5.093,3.46,11.4,4.126,17,7,17.2,8.829,35.792,18.046,53,27,6.147,3.2,13.01,4.227,19,8,5.742,3.617,10.591,9.985,16,14,19.014,14.115,36.543,29.551,57,42,7.534,4.585,15.44,6.41,23,11,8.944,5.43,19.256,12.937,29,17,12.606,5.257,28.979,3.664,30,20-3.316,5.517-.685,14.264-3,21-4,11.651-17.081,33.492-28,38v-8c9.251-8.262,13.773-40.468-7-40v2c-5.156,8.52-1.707,27.251-5,38-0.549,1.793-21.492,28.017-23,29-4.105,2.676-9.291,2.1-14,4-3.893,1.57-9.719,4.915-14,6-6.9,1.749-13.412-2.612-18-4l-12-2-30-24c-10.688-13.485-22.635-25.269-33-39l-9-8c-14.229-18.881-31.632-36.368-51-50-7.333-5.161-15.342-8.178-23-13-14.194-8.939-28.806-19.062-43-28-10.564-6.652-24.469-11.234-33-20,0.8-1.021.355-.274,1-2,2.978-2.1,19.77-23.435,21-27h-1C454.321,387.846,451.346,386.61,443,387Z" transform="translate(-434 -295)"/>
</svg>
