<svg xmlns="http://www.w3.org/2000/svg" width="271" height="267.562" viewBox="0 0 271 267.562">
  <defs>
    <style>
      .cls-1 {
        fill: #fff;
        stroke: #000;
        stroke-width: 2px;
        fill-rule: evenodd;
      }
    </style>
  </defs>
  <path id="huyện_Ba_Tri" data-name="huyện Ba Tri" class="cls-1" d="M635,159c11.683,4.391,27.691,6.687,40,10,6.057,12.337,15.458,37.9,26,45,9.635,6.489,23.991,6.4,33,13,5.792,4.244,7.084,11.7,11,18,7.31,11.759,13.58,24.862,21,37,4.4,7.2,13.162,11.573,14,22-2.031,2.946-1.1,7.568-3,11l-5,4c-8.72,11.661-18.273,18.938-22,36,7.637,4.541,15.467,14.583,17,25-3.746,2.512-4.065,3.975-11,4-2.15,1.438-7.308,1.113-11,1-0.982,1.7-3.382,3.263-4,5v10c-1.318,3.7-6.064,6.763-8,10q-2,6-4,12c-1.409,1.84-2.866,1.653-6,2-2.35,1.266-11.614,0-17,0-16.95-.013-33.539-1.009-45-7-2.752-1.438-4.6-5.219-7-7-14.651-10.888-26.608-25.407-42-35-4.95-3.085-10.423-3.571-16-6-10.288-4.481-21.712-10.518-32-15-3.66-1.594-6.576-1.027-10-3-8.68-5-15.98-15-24-21-7.22-5.406-16-10.59-19-20,8.554-3.646,18.025-7.685,24-14,3.535,0.716,2.481,1.229,6,2,3.622-4.5,12.756-8.4,19-10,2.067-17.493,15.333-30.951,24-43,5.425-7.543,12.722-7.664,13-21-6.621-8.56-1.091-22.43,7-25,2.576-1.351,6.081.686,11,1,1.222-4.761,2.74-7.82,9-8,7.476-4.473,18.192,2.156,25-3C640.876,181.336,637.956,172.164,635,159Z" transform="translate(-510 -158)"/>
</svg>
