<svg xmlns="http://www.w3.org/2000/svg" width="243" height="248" viewBox="0 0 243 248">
  <defs>
    <style>
      .cls-1 {
        fill: #fff;
        stroke: #000;
        stroke-width: 2px;
        fill-rule: evenodd;
      }
    </style>
  </defs>
  <path id="huyện_Giống_Trôm" data-name="huyện Giống Trôm" class="cls-1" d="M473,64l20,19c15.55,6.626,27.784,3.325,41,12l36,35c17.574,11.326,52.8,14.342,65,31,5.648,10.708,8.667,20.052,14,29l-30,2-4,8-13-1c-11.317,15.516-.391,20.7-7,36-14.058,6.816-32.127,35.286-35,53-19.572,5.734-30.373,18.046-51,22l-21-27L408,149c13.507,0.706,30.218-2.727,35-13,3.195-10.173.752-22.573,5-28,3.911-4.711,10.743-6.742,16-10C466.871,85.99,467.66,72.869,473,64Z" transform="translate(-407 -63)"/>
</svg>
