<svg xmlns="http://www.w3.org/2000/svg" width="272" height="191" viewBox="0 0 272 191">
  <defs>
    <style>
      .cls-1 {
        fill: #fff;
        stroke: #000;
        stroke-width: 2px;
        fill-rule: evenodd;
      }
    </style>
  </defs>
  <path id="huyện_Chợ_Lách" data-name="huyện Chợ Lách" class="cls-1" d="M237,118q0.5,2.5,1,5c4.687,2.116,7.449,1.291,14,1l3,6a25.766,25.766,0,0,1,5-2c0.648-3.092,1.471-5.645,4-7,1.073-.752.946-0.6,3-1v2c1.553,2.465,3.743,16.629,4,20l-2,1c-3.025,2.158-8.539,1.173-15,1-3.083,4.571-6.93,6.078-8,13l11,8v1c-28.561,7.284-11.175,26.139-26,42v-1c-11.061-7.26-22.029-21.447-30-32-10.006-13.247-26.008-22.759-36-36-9.171-12.152-23.376-29-40-33-5.565-1.339-6.377,3.078-12,2-10.022-1.921-23.807-2.579-35-5-20.917-4.525-39.878,3.857-57-5-4.906-2.538-13.289-3.273-15-9-3.253-5-.628-14.274-2-21C1.519,55.833-3.823,22.362,8,19c8.185,6.066,26.521,8.1,37,12,10.31,3.835,20.78,9.631,31,13,16.882,5.565,36.493,5.842,58,6,2.805,7.84,9.5,8.763,16,13,11.813,7.7,32.732,31,55,26,14.033-3.149,26.254-11.3,44-8,2.046,3.241,2.988,4.032,3,10-1.664,2.069-1.91,4.156-2,8,3.7,2.25,5.781,4,6,10-0.8,1.021-.355.274-1,2C249.233,114.741,247.138,117.983,237,118Z" transform="translate(0 -18)"/>
</svg>
