<svg xmlns="http://www.w3.org/2000/svg" width="184" height="268" viewBox="0 0 184 268">
  <defs>
    <style>
      .cls-1 {
        fill: #fff;
        stroke: #000;
        stroke-width: 2px;
        fill-rule: evenodd;
      }
    </style>
  </defs>
  <path id="huyện_Mỏ_Cày_Nam" data-name="huyện Mỏ Cày Nam" class="cls-1" d="M443,387h9l5,7c-1.312,4.066-19.575,27.4-23,29v-1a184.635,184.635,0,0,1-21-23l-11-10a265.527,265.527,0,0,1-24-27l-16-15c-12.214-13.729-25.908-26.319-37-41-6.524-8.635-31.95-27.313-34-37,2.815-1.842,15.844-16.11,17-19h-1c-2.863,2.137-5.605,1.653-9,1l-1-3c-1.142-1.69-1.066-4.9-1-8,11.6-12.331,8.248-20.735,30-25,0.689-3.4,2.21-8.477,5-10,5.515-4.017,16.254-2.066,22-6-4.667-2.543-8.719-4.814-9-12,2.125-1.456,2.5-2.839,5-4,5-4.339,15.286.547,19-1,6.915-2.484,15.534-18.753,20-25,1.02,33.69,21.486,53.456,36,74,9.561,13.534,18.338,26.548,28,40,4.782,6.658,16.037,16.764,19,24,1.42,3.468,1.277,12.936,2,16-3.106,2.094-3.417,4.093-8,5-1.79-1.65-2.512-1.746-6-2-3.657,3.738-8.789,5.8-10,12,5.861,5.958,3.983,11.06,2,19v11c-1.143,3.163-5.868,4.834-7,8Q443.5,375.5,443,387Z" transform="translate(-290 -156)"/>
</svg>
