<svg xmlns="http://www.w3.org/2000/svg" width="157" height="203.969" viewBox="0 0 157 203.969">
  <defs>
    <style>
      .cls-1 {
        fill: #fff;
        stroke: #000;
        stroke-width: 2px;
        fill-rule: evenodd;
      }
    </style>
  </defs>
  <path id="huyện_Mỏ_Cày_Bắc" data-name="huyện Mỏ Cày Bắc" class="cls-1" d="M237,118c8.969,0.319,15.874-2.621,18-9,0.877-1.3.894-2.467,1-5-3.7-2.25-5.781-4-6-10,4.78-5.825-.258-10.471-2-15,19.494-12.788,37.792-14.3,60-5,5.212,2.183,9.811.765,12,6h1v1c-3.042-.075-2.744-0.756-4,0h1c4.969,8.143,12.43,7.6,20,13,5.319,3.8,9.719,10.086,15,14,17,12.594,33.852,23.424,34,53-6.709,6.946-12.4,14.967-19,22a42.975,42.975,0,0,0-21,0c-1.294,3.837-2.648,3.561-3,9,3,1.89,6.984,5.083,9,8-8.951.184-16.4,3.139-24,5-0.367,4.487-1.623,8.393-5,10-2.138,1.315-5.322.868-8,2-8.091,3.421-13.741,11.808-18,19-2.785,4.7-3.377,12.776,2,15,2.2,1.286,5.352.074,8-1v2c-8.141,4.267-10.527,14.937-19,18-2.611-7.261-10.727-10.347-15-16-8-10.589-17.656-20.648-27-30-5-5-13.314-10.012-15-18,7.645-8.36,3.5-18.8,8-30,2.837-7.055,11.9-6.32,17-11-4.285-2.487-9.916-5.147-11-11,5.869-6.4,5.646-10.32,19-10,1.206,0.753,2.812-.15,5-1a15.7,15.7,0,0,0,1-5c-3.009-3.916-2.934-12.283-4-18h-3c-1.021.8-.274,0.355-2,1-0.407,3.907-1.046,5.6-4,7-1.737,1.322-1.607,1.727-3,1-3.123-3.383-2.013-4.92-9-5-2.347,1.544-4.281.586-7,0q-0.5-1.5-1-3C237.248,119.927,237.4,120.054,237,118Z" transform="translate(-231 -67.031)"/>
</svg>
