<svg xmlns="http://www.w3.org/2000/svg" width="351" height="90.625" viewBox="0 0 351 90.625">
  <defs>
    <style>
      .cls-1 {
        fill: #fff;
        stroke: #000;
        stroke-width: 2px;
        fill-rule: evenodd;
      }
    </style>
  </defs>
  <path id="huyện_Châu_Thành" data-name="huyện Châu Thành" class="cls-1" d="M328,38v6c3.155,1.944,4.57,3.08,5,8-0.888,1.8-.3,1.81,0,5h7v1c-3.336,3.124-6.5,7.064-7,13,2.855,1.89,3.576,3.645,5,7-4.434,1.355-6.4,2.9-13,3-14.318-11.474-44.742-17.675-66-9-3.664,1.5-8.46,6.888-11,8H233c-10.155,2.661-23.339,12.135-37,9-17.893-4.106-26.456-12.578-39-21-7.7-5.171-19.651-8.638-23-18,38.922-3.659,70.374-18.1,106-27,7.886-1.969,20.645-1.682,28,0,12.2,2.791,45.548-1.363,55-4,19.607-5.47,51.488-22.862,75-18l14,1c15.7,5.14,31.506,13.017,49,18,8.481,2.416,20.544.777,22,10-5.538,7.6-4.625,20.2-8,30-1.252,3.636-4.724,6.71-6,10-1.956,5.042-.78,13.329-5,16-3.058-1.811-8.384-.489-12-2-4.043-1.69-6.444-7.057-11-9-10.874-4.638-24.873-4.893-31-14,2.271-1.469,3.009-2.1,4-5-4.147-2.721-5.223-5.6-12-6-8.027-4.964-33.783,5.538-50,1C342.086,48.225,340.712,38.685,328,38Z" transform="translate(-133)"/>
</svg>
