<svg xmlns="http://www.w3.org/2000/svg" width="148" height="114" viewBox="0 0 148 114">
  <defs>
    <style>
      .cls-1 {
        fill: #fff;
        stroke: #000;
        stroke-width: 2px;
        fill-rule: evenodd;
      }
    </style>
  </defs>
  <path id="Tp_Bến_Tre" data-name="Tp Bến Tre" class="cls-1" d="M328,38c12.7,0.61,14.107,10.223,24,13l31,1c1.563-.627,4.255-3.55,7-4l17,2c1.7,2.474,4.465,4.416,7,6v2c-1.465.947-4.763,2.878-3,4,6.2,8.358,19.6,8.587,30,13,4.493,1.907,5.989,6.02,9,8l16,3v8c-1.262,1.359-1.365,1.768-2,4-5.678,3.209-16.226,5.844-18,13,1.262,1.359,1.365,1.768,2,4-10.315,6.932-.283,15.208-5,23-3.7,6.114-13.683,3.859-18,9-0.752,1.073-.6.946-1,3l-17-1c-5.737-17.707-21.148-29.1-33-41-4.122-4.138-7.475-11.511-13-14-11-4.953-34.737-6.421-41-15h2c4.712,3.947,12.823,1.414,16-2-2.471-2.753-4.51-5.276-5-10a35.92,35.92,0,0,0,7-10h-7a42.859,42.859,0,0,1,0-9C329.3,45.726,328.01,44.226,328,38Z" transform="translate(-319 -37)"/>
</svg>
