<?xml version="1.0" encoding="utf-8"?>
<!-- Generator: Adobe Illustrator 25.0.0, SVG Export Plug-In . SVG Version: 6.00 Build 0)  -->
<svg version="1.1" id="Layer_1" xmlns="http://www.w3.org/2000/svg" xmlns:xlink="http://www.w3.org/1999/xlink" x="0px" y="0px"
	 viewBox="0 0 272 191" style="enable-background:new 0 0 272 191;" xml:space="preserve">
<style type="text/css">
	.st0{fill-rule:evenodd;clip-rule:evenodd;fill:#6E9E75;stroke:#000000;stroke-width:2;}
</style>
<path id="huyện_Chợ_Lách" class="st0" d="M237,100c0.3,1.7,0.7,3.3,1,5c4.7,2.1,7.4,1.3,14,1l3,6c1.6-0.8,3.3-1.5,5-2
	c0.6-3.1,1.5-5.6,4-7c1.1-0.8,0.9-0.6,3-1v2c1.6,2.5,3.7,16.6,4,20l-2,1c-3,2.2-8.5,1.2-15,1c-3.1,4.6-6.9,6.1-8,13l11,8v1
	c-28.6,7.3-11.2,26.1-26,42v-1c-11.1-7.3-22-21.4-30-32c-10-13.2-26-22.8-36-36c-9.2-12.2-23.4-29-40-33c-5.6-1.3-6.4,3.1-12,2
	c-10-1.9-23.8-2.6-35-5c-20.9-4.5-39.9,3.9-57-5c-4.9-2.5-13.3-3.3-15-9c-3.3-5-0.6-14.3-2-21C1.5,37.8-3.8,4.4,8,1
	c8.2,6.1,26.5,8.1,37,12c10.3,3.8,20.8,9.6,31,13c16.9,5.6,36.5,5.8,58,6c2.8,7.8,9.5,8.8,16,13c11.8,7.7,32.7,31,55,26
	c14-3.1,26.3-11.3,44-8c2,3.2,3,4,3,10c-1.7,2.1-1.9,4.2-2,8c3.7,2.2,5.8,4,6,10c-0.8,1-0.4,0.3-1,2C249.2,96.7,247.1,100,237,100z"
	/>
</svg>
