<?xml version="1.0" encoding="utf-8"?>
<!-- Generator: Adobe Illustrator 25.0.0, SVG Export Plug-In . SVG Version: 6.00 Build 0)  -->
<svg version="1.1" id="Layer_1" xmlns="http://www.w3.org/2000/svg" xmlns:xlink="http://www.w3.org/1999/xlink" x="0px" y="0px"
	 viewBox="0 0 243 248" style="enable-background:new 0 0 243 248;" xml:space="preserve">
<style type="text/css">
	.st0{fill-rule:evenodd;clip-rule:evenodd;fill:#6E9E75;stroke:#000000;stroke-width:2;}
</style>
<path id="huyện_Giống_Trôm" class="st0" d="M66,1l20,19c15.5,6.6,27.8,3.3,41,12l36,35c17.6,11.3,52.8,14.3,65,31
	c5.6,10.7,8.7,20.1,14,29l-30,2l-4,8l-13-1c-11.3,15.5-0.4,20.7-7,36c-14.1,6.8-32.1,35.3-35,53c-19.6,5.7-30.4,18-51,22l-21-27
	L1,86c13.5,0.7,30.2-2.7,35-13c3.2-10.2,0.8-22.6,5-28c3.9-4.7,10.7-6.7,16-10C59.9,23,60.7,9.9,66,1z"/>
</svg>
