<?xml version="1.0" encoding="utf-8"?>
<!-- Generator: Adobe Illustrator 25.0.0, SVG Export Plug-In . SVG Version: 6.00 Build 0)  -->
<svg version="1.1" id="Layer_1" xmlns="http://www.w3.org/2000/svg" xmlns:xlink="http://www.w3.org/1999/xlink" x="0px" y="0px"
	 viewBox="0 0 157 204" style="enable-background:new 0 0 157 204;" xml:space="preserve">
<style type="text/css">
	.st0{fill-rule:evenodd;clip-rule:evenodd;fill:#6E9E75;stroke:#000000;stroke-width:2;}
</style>
<path id="huyện_Mỏ_Cày_Bắc" class="st0" d="M6,51c9,0.3,15.9-2.6,18-9c0.9-1.3,0.9-2.5,1-5c-3.7-2.2-5.8-4-6-10
	c4.8-5.8-0.3-10.5-2-15C36.5-0.8,54.8-2.3,77,7c5.2,2.2,9.8,0.8,12,6h1v1c-3-0.1-2.7-0.8-4,0h1c5,8.1,12.4,7.6,20,13
	c5.3,3.8,9.7,10.1,15,14c17,12.6,33.9,23.4,34,53c-6.7,6.9-12.4,15-19,22c-6.9-1.7-14.1-1.7-21,0c-1.3,3.8-2.6,3.6-3,9
	c3,1.9,7,5.1,9,8c-9,0.2-16.4,3.1-24,5c-0.4,4.5-1.6,8.4-5,10c-2.1,1.3-5.3,0.9-8,2c-8.1,3.4-13.7,11.8-18,19
	c-2.8,4.7-3.4,12.8,2,15c2.2,1.3,5.4,0.1,8-1v2c-8.1,4.3-10.5,14.9-19,18c-2.6-7.3-10.7-10.3-15-16c-8-10.6-17.7-20.6-27-30
	c-5-5-13.3-10-15-18c7.6-8.4,3.5-18.8,8-30c2.8-7.1,11.9-6.3,17-11c-4.3-2.5-9.9-5.1-11-11c5.9-6.4,5.6-10.3,19-10
	c1.2,0.8,2.8-0.1,5-1c0.6-1.6,0.9-3.3,1-5c-3-3.9-2.9-12.3-4-18h-3c-1,0.8-0.3,0.4-2,1c-0.4,3.9-1,5.6-4,7c-1.7,1.3-1.6,1.7-3,1
	c-3.1-3.4-2-4.9-9-5c-2.3,1.5-4.3,0.6-7,0c-0.3-1-0.7-2-1-3C6.2,52.9,6.4,53,6,51z"/>
</svg>
