<?xml version="1.0" encoding="utf-8"?>
<!-- Generator: Adobe Illustrator 25.0.0, SVG Export Plug-In . SVG Version: 6.00 Build 0)  -->
<svg version="1.1" id="Layer_1" xmlns="http://www.w3.org/2000/svg" xmlns:xlink="http://www.w3.org/1999/xlink" x="0px" y="0px"
	 viewBox="0 0 184 268" style="enable-background:new 0 0 184 268;" xml:space="preserve">
<style type="text/css">
	.st0{fill-rule:evenodd;clip-rule:evenodd;fill:#6E9E75;stroke:#000000;stroke-width:2;}
</style>
<path id="huyện_Mỏ_Cày_Nam" class="st0" d="M153,231h9l5,7c-1.3,4.1-19.6,27.4-23,29v-1c-7.6-7.1-14.7-14.8-21-23l-11-10
	c-8.6-8.4-16.6-17.5-24-27l-16-15c-12.2-13.7-25.9-26.3-37-41c-6.5-8.6-32-27.3-34-37c2.8-1.8,15.8-16.1,17-19h-1
	c-2.9,2.1-5.6,1.7-9,1l-1-3c-1.1-1.7-1.1-4.9-1-8c11.6-12.3,8.2-20.7,30-25c0.7-3.4,2.2-8.5,5-10c5.5-4,16.3-2.1,22-6
	c-4.7-2.5-8.7-4.8-9-12c2.1-1.5,2.5-2.8,5-4c5-4.3,15.3,0.5,19-1c6.9-2.5,15.5-18.8,20-25c1,33.7,21.5,53.5,36,74
	c9.6,13.5,18.3,26.5,28,40c4.8,6.7,16,16.8,19,24c1.4,3.5,1.3,12.9,2,16c-3.1,2.1-3.4,4.1-8,5c-1.8-1.6-2.5-1.7-6-2
	c-3.7,3.7-8.8,5.8-10,12c5.9,6,4,11.1,2,19v11c-1.1,3.2-5.9,4.8-7,8C153.7,215.7,153.3,223.3,153,231z"/>
</svg>
