<?xml version="1.0" encoding="utf-8"?>
<!-- Generator: Adobe Illustrator 25.0.0, SVG Export Plug-In . SVG Version: 6.00 Build 0)  -->
<svg version="1.1" id="Layer_1" xmlns="http://www.w3.org/2000/svg" xmlns:xlink="http://www.w3.org/1999/xlink" x="0px" y="0px"
	 viewBox="0 0 348 317" style="enable-background:new 0 0 348 317;" xml:space="preserve">
<style type="text/css">
	.st0{fill-rule:evenodd;clip-rule:evenodd;fill:#6E9E75;stroke:#000000;stroke-width:2;}
</style>
<path id="huyện_Thạch_Phú" class="st0" d="M9,92c0.3-7.7,0.7-15.3,1-23c0.9-2.6,4.7-3.9,6-6c0.4-0.7,4-24,4-24
	c-0.6-3.9-4.2-6-5-11c5-3.4,6.1-8.3,14-9c1.6,1.5,2,1.6,5,2c1.8-2.7,3.8-3.5,5-7c-2.2-2.8-2.1-7.7-2-13h1v2c7.4,5.2,11.8,15.5,17,23
	c10.2,14.5,21.9,30.3,36,41l12,13c5.1,3.5,11.4,4.1,17,7c17.2,8.8,35.8,18,53,27c6.1,3.2,13,4.2,19,8c5.7,3.6,10.6,10,16,14
	c19,14.1,36.5,29.6,57,42c7.5,4.6,15.4,6.4,23,11c8.9,5.4,19.3,12.9,29,17c12.6,5.3,29,3.7,30,20c-3.3,5.5-0.7,14.3-3,21
	c-4,11.7-17.1,33.5-28,38v-8c9.3-8.3,13.8-40.5-7-40v2c-5.2,8.5-1.7,27.3-5,38c-0.5,1.8-21.5,28-23,29c-4.1,2.7-9.3,2.1-14,4
	c-3.9,1.6-9.7,4.9-14,6c-6.9,1.7-13.4-2.6-18-4l-12-2l-30-24c-10.7-13.5-22.6-25.3-33-39l-9-8c-14.2-18.9-31.6-36.4-51-50
	c-7.3-5.2-15.3-8.2-23-13c-14.2-8.9-28.8-19.1-43-28c-10.6-6.7-24.5-11.2-33-20c0.8-1,0.4-0.3,1-2c3-2.1,19.8-23.4,21-27h-1
	C20.3,92.8,17.3,91.6,9,92z"/>
</svg>
