<?xml version="1.0" encoding="utf-8"?>
<!-- Generator: Adobe Illustrator 25.0.0, SVG Export Plug-In . SVG Version: 6.00 Build 0)  -->
<svg version="1.1" id="Layer_1" xmlns="http://www.w3.org/2000/svg" xmlns:xlink="http://www.w3.org/1999/xlink" x="0px" y="0px"
	 viewBox="0 0 271 267.6" style="enable-background:new 0 0 271 267.6;" xml:space="preserve">
<style type="text/css">
	.st0{fill-rule:evenodd;clip-rule:evenodd;fill:#6E9E75;stroke:#000000;stroke-width:2;}
</style>
<path id="huyện_Ba_Tri" class="st0" d="M125,1c11.7,4.4,27.7,6.7,40,10c6.1,12.3,15.5,37.9,26,45c9.6,6.5,24,6.4,33,13
	c5.8,4.2,7.1,11.7,11,18c7.3,11.8,13.6,24.9,21,37c4.4,7.2,13.2,11.6,14,22c-2,2.9-1.1,7.6-3,11l-5,4c-8.7,11.7-18.3,18.9-22,36
	c7.6,4.5,15.5,14.6,17,25c-3.7,2.5-4.1,4-11,4c-2.2,1.4-7.3,1.1-11,1c-1,1.7-3.4,3.3-4,5v10c-1.3,3.7-6.1,6.8-8,10
	c-1.3,4-2.7,8-4,12c-1.4,1.8-2.9,1.7-6,2c-2.3,1.3-11.6,0-17,0c-17,0-33.5-1-45-7c-2.8-1.4-4.6-5.2-7-7c-14.7-10.9-26.6-25.4-42-35
	c-5-3.1-10.4-3.6-16-6c-10.3-4.5-21.7-10.5-32-15c-3.7-1.6-6.6-1-10-3c-8.7-5-16-15-24-21c-7.2-5.4-16-10.6-19-20
	c8.6-3.6,18-7.7,24-14c3.5,0.7,2.5,1.2,6,2c3.6-4.5,12.8-8.4,19-10c2.1-17.5,15.3-31,24-43c5.4-7.5,12.7-7.7,13-21
	c-6.6-8.6-1.1-22.4,7-25c2.6-1.4,6.1,0.7,11,1c1.2-4.8,2.7-7.8,9-8c7.5-4.5,18.2,2.2,25-3C130.9,23.3,128,14.2,125,1z"/>
</svg>
