<?xml version="1.0" encoding="utf-8"?>
<!-- Generator: Adobe Illustrator 25.0.0, SVG Export Plug-In . SVG Version: 6.00 Build 0)  -->
<svg version="1.1" id="Layer_1" xmlns="http://www.w3.org/2000/svg" xmlns:xlink="http://www.w3.org/1999/xlink" x="0px" y="0px"
	 viewBox="0 0 351 90.6" style="enable-background:new 0 0 351 90.6;" xml:space="preserve">
<style type="text/css">
	.st0{fill-rule:evenodd;clip-rule:evenodd;fill:#6E9E75;stroke:#000000;stroke-width:2;}
</style>
<path id="huyện_Châu_Thành" class="st0" d="M195,38v6c3.2,1.9,4.6,3.1,5,8c-0.9,1.8-0.3,1.8,0,5h7v1c-3.3,3.1-6.5,7.1-7,13
	c2.9,1.9,3.6,3.6,5,7c-4.4,1.4-6.4,2.9-13,3c-14.3-11.5-44.7-17.7-66-9c-3.7,1.5-8.5,6.9-11,8h-15c-10.2,2.7-23.3,12.1-37,9
	c-17.9-4.1-26.5-12.6-39-21c-7.7-5.2-19.7-8.6-23-18c38.9-3.7,70.4-18.1,106-27c7.9-2,20.6-1.7,28,0c12.2,2.8,45.5-1.4,55-4
	c19.6-5.5,51.5-22.9,75-18l14,1c15.7,5.1,31.5,13,49,18c8.5,2.4,20.5,0.8,22,10c-5.5,7.6-4.6,20.2-8,30c-1.3,3.6-4.7,6.7-6,10
	c-2,5-0.8,13.3-5,16c-3.1-1.8-8.4-0.5-12-2c-4-1.7-6.4-7.1-11-9c-10.9-4.6-24.9-4.9-31-14c2.3-1.5,3-2.1,4-5c-4.1-2.7-5.2-5.6-12-6
	c-8-5-33.8,5.5-50,1C209.1,48.2,207.7,38.7,195,38z"/>
</svg>
