<?xml version="1.0" encoding="utf-8"?>
<!-- Generator: Adobe Illustrator 25.0.0, SVG Export Plug-In . SVG Version: 6.00 Build 0)  -->
<svg version="1.1" id="Layer_1" xmlns="http://www.w3.org/2000/svg" xmlns:xlink="http://www.w3.org/1999/xlink" x="0px" y="0px"
	 viewBox="0 0 148 114" style="enable-background:new 0 0 148 114;" xml:space="preserve">
<style type="text/css">
	.st0{fill-rule:evenodd;clip-rule:evenodd;fill:#6E9E75;stroke:#000000;stroke-width:2;}
</style>
<path id="Tp_Bến_Tre" class="st0" d="M9,1c12.7,0.6,14.1,10.2,24,13l31,1c1.6-0.6,4.3-3.5,7-4l17,2c1.7,2.5,4.5,4.4,7,6v2
	c-1.5,0.9-4.8,2.9-3,4c6.2,8.4,19.6,8.6,30,13c4.5,1.9,6,6,9,8l16,3v8c-1.3,1.4-1.4,1.8-2,4c-5.7,3.2-16.2,5.8-18,13
	c1.3,1.4,1.4,1.8,2,4c-10.3,6.9-0.3,15.2-5,23c-3.7,6.1-13.7,3.9-18,9c-0.8,1.1-0.6,0.9-1,3l-17-1c-5.7-17.7-21.1-29.1-33-41
	c-4.1-4.1-7.5-11.5-13-14C31,52,7.3,50.6,1,42h2c4.7,3.9,12.8,1.4,16-2c-2.5-2.8-4.5-5.3-5-10c2.9-2.9,5.3-6.3,7-10h-7
	c-0.3-3-0.3-6,0-9C10.3,8.7,9,7.2,9,1z"/>
</svg>
